<svg xmlns="http://www.w3.org/2000/svg" width="1014" height="356" viewBox="0 0 1014 356">
  <defs>
    <style>
      .cls-1, .cls-2 {
        fill: #dd202f;
      }

      .cls-1 {
        opacity: 0.2;
      }

      .cls-2 {
        opacity: 0.3;
      }

      .cls-3 {
        fill: #e8414f;
      }

      .cls-4 {
        fill: #333;
      }

      .cls-4 {
        stroke: #000;
        stroke-width: 1px;
        fill-rule: evenodd;
      }

      .cls-5 {
        fill: #fff;
      }
    </style>
  </defs>
  <g id="Artboard_1" data-name="Artboard 1">
    <g id="Vindict">
      <circle id="Ellipse_2_copy" data-name="Ellipse 2 copy" class="cls-1" cx="313" cy="149.062" r="140"/>
      <circle id="Ellipse_2_copy_2" data-name="Ellipse 2 copy 2" class="cls-2" cx="263" cy="199.062" r="140"/>
      <circle id="Ellipse_2_copy_3" data-name="Ellipse 2 copy 3" class="cls-2" cx="303" cy="179.062" r="140"/>
      <circle id="Ellipse_2_copy_4" data-name="Ellipse 2 copy 4" class="cls-2" cx="263" cy="159.062" r="140"/>
      <circle class="cls-3" cx="283" cy="169.062" r="140"/>
      <path id="V_DICT" data-name="V   DICT" class="cls-4" d="M58.441,211.177l42.742-100.11H89.113l-35.5,85.626L18.255,111.067H5.759L48.5,211.177h9.94Zm449.624-.71q23.144,0,37.985-14.2t14.839-35.5q0-21.44-14.768-35.571t-38.056-14.129H473.559v99.4h34.506Zm-23.288-89.034h23.288q18.458,0,29.82,11.218t11.36,28.116q0,17.04-11.289,28.187T508.065,200.1H484.777V121.433Zm177.314,89.034v-99.4H650.873v99.4h11.218Zm161.7-2.556A61.512,61.512,0,0,0,841.4,195.273l-7.384-7.81a60.594,60.594,0,0,1-15.052,10.792,38.879,38.879,0,0,1-17.04,3.55,36,36,0,0,1-27.406-11.857q-11.076-11.855-11.076-29.181,0-17.466,11-29.252a36.034,36.034,0,0,1,27.477-11.786q16.9,0,31.24,13.632l7.384-7.952a64.077,64.077,0,0,0-17.182-12q-8.806-4.047-21.3-4.047-21.587,0-35.926,14.981T751.8,160.767q0,21.726,14.2,36.565t35.642,14.839Q814.558,212.171,823.791,207.911Zm140.358,2.556V121.433h33.37V111.067h-78.1v10.366h33.37v89.034h11.36Z"/>
      <path id="IN" class="cls-5" d="M202.478,211.994v-99.4H191.26v99.4h11.218Zm105.042,0V130.486L371.7,211.994h8.946v-99.4H369.716v79.662l-62.622-79.662H296.586v99.4H307.52Z"/>
    </g>
  </g>
</svg>
